<svg xmlns="http://www.w3.org/2000/svg" viewBox="0 0 48 48"><defs><style>.cls-1{fill:#181818;}.cls-2{fill:#9b50c0;}</style></defs><g id="Capa_2" data-name="Capa 2"><g id="Capa_1-2" data-name="Capa 1"><rect class="cls-1" width="48" height="48"/><path class="cls-2" d="M36.5,12.62a.07.07,0,0,0,0,0,29.67,29.67,0,0,0-7.31-2.27.11.11,0,0,0-.12,0c-.33.61-.63,1.24-.91,1.87a27.55,27.55,0,0,0-8.21,0A19.05,19.05,0,0,0,19,10.36a.11.11,0,0,0-.12,0,29.32,29.32,0,0,0-7.32,2.27.1.1,0,0,0,0,0A30.36,30.36,0,0,0,6.17,33.07a.19.19,0,0,0,0,.09,29.78,29.78,0,0,0,9,4.53.12.12,0,0,0,.13,0,21.75,21.75,0,0,0,1.83-3,.11.11,0,0,0-.05-.15h0a19.55,19.55,0,0,1-2.81-1.34.12.12,0,0,1,0-.16l0,0,.56-.44a.11.11,0,0,1,.11,0,21.24,21.24,0,0,0,18.07,0,.11.11,0,0,1,.11,0l.56.45a.11.11,0,0,1,0,.16l0,0a18.54,18.54,0,0,1-2.81,1.34.11.11,0,0,0-.06.15h0a25.32,25.32,0,0,0,1.83,3,.11.11,0,0,0,.13,0,29.55,29.55,0,0,0,9-4.53.1.1,0,0,0,0-.08A30.17,30.17,0,0,0,36.5,12.62ZM18,29a3.46,3.46,0,0,1-3.23-3.62A3.44,3.44,0,0,1,18,21.75a3.4,3.4,0,0,1,3.23,3.61A3.44,3.44,0,0,1,18,29ZM30,29a3.45,3.45,0,0,1-3.22-3.62A3.43,3.43,0,0,1,30,21.75a3.4,3.4,0,0,1,3.23,3.61A3.43,3.43,0,0,1,30,29Z"/></g></g></svg>