<svg xmlns="http://www.w3.org/2000/svg" viewBox="0 0 33.91 30.07"><defs><style>.cls-1{fill:#9b50c0;}</style></defs><g id="Capa_2" data-name="Capa 2"><g id="Capa_1-2" data-name="Capa 1"><path class="cls-1" d="M18.87,20.05a1.19,1.19,0,0,1,.19.69,1.23,1.23,0,0,1-.6,1.11,2.93,2.93,0,0,1-1.58.38l-.32,0,.76-3a9,9,0,0,1,.84.32A1.75,1.75,0,0,1,18.87,20.05ZM17.49,15h-.22a3.14,3.14,0,0,0-1.64.36,1.14,1.14,0,0,0-.59,1,.93.93,0,0,0,.19.61,1.68,1.68,0,0,0,.7.44c.22.08.52.19.87.3Zm16.42-3.72V30.07H26.37V26.3H7.53v3.77H0V11.23H3.14L6.19,0H27.72l3,11.23Zm-26.12,0H26.12L24.54,4.31H9.37Zm3,7.07L9.3,15.65H6.24L4.71,18.3,6.24,21H9.3Zm9.6,2.24a2.15,2.15,0,0,0-.3-1.16,2.35,2.35,0,0,0-.94-.83A8.1,8.1,0,0,0,17.71,18L18.44,15c.33.05.68.1,1,.17l.5.11.2-1.07-.53-.15c-.3-.09-.62-.15-.93-.22l.3-1.23h-1l-.28,1.11c-.21,0-.43-.05-.64-.05a4.81,4.81,0,0,0-1.74.29,2.74,2.74,0,0,0-1.25.88,2.29,2.29,0,0,0-.44,1.48,2.31,2.31,0,0,0,.3,1.2,2.22,2.22,0,0,0,.94.79,11.85,11.85,0,0,0,1.47.56l-.81,3.24c-.36,0-.7-.09-1-.15l-.92-.17-.22,1,.79.23a8.3,8.3,0,0,0,1.06.25l-.4,1.59h.94l.38-1.47.65,0a5.07,5.07,0,0,0,1.8-.3A2.67,2.67,0,0,0,20,22.21,2.76,2.76,0,0,0,20.43,20.54ZM29.2,18.3l-1.53-2.65H24.61L23.07,18.3,24.61,21h3.06Z"/></g></g></svg>