<svg xmlns="http://www.w3.org/2000/svg" viewBox="0 0 35.44 39.76"><defs><style>.cls-1{fill:#9b50c0;}</style></defs><g id="Capa_2" data-name="Capa 2"><g id="Capa_1-2" data-name="Capa 1"><path class="cls-1" d="M1,27.37,0,25.63l7.49-4.28,6.76,3.76,6.59-3.59,6.93,3.94,6.67-3.88,1,1.73-7.66,4.45-7-4-6.58,3.58L7.5,23.65Zm26.78,4.09-6.93-3.94-6.59,3.59L7.49,27.35,0,31.63l1,1.74L7.5,29.65l6.74,3.74,6.58-3.58,7,3.95,7.66-4.45-1-1.73Zm0,6-6.93-3.94-6.59,3.59L7.49,33.35,0,37.63l1,1.74L7.5,35.65l6.74,3.74,6.58-3.58,7,3.95,7.66-4.45-1-1.73ZM29,5,21,0V3H15V5h6V8H3v5H34Zm1,13.75L34,15H3l2,3.75Z"/></g></g></svg>