<svg xmlns="http://www.w3.org/2000/svg" viewBox="0 0 61 26.28"><defs><style>.cls-1{fill:#9b50c0;}</style></defs><g id="Capa_2" data-name="Capa 2"><g id="Capa_1-2" data-name="Capa 1"><path class="cls-1" d="M17.75,14.76l3.32,5.76-3.32,5.76H11.09L7.76,20.52l3.33-5.76ZM48.8,10.91H39.93L35.49,18.6l4.44,7.68H48.8l4.44-7.68ZM35.49,9.77l2.22-3.84L35.49,2.09H31.05L28.84,5.93l2.21,3.84Zm1.38,2-16.21,3.6,3,5.15-1.79,3.11h14l-2.9-5ZM55.8,18.6l-2.91,5h4.78V11.09H51.46Zm-49.46,0L0,20v3.67H7L5.2,20.52ZM47.69,2.22V4.44H51V8.87h2.22V4.44H61V0Z"/></g></g></svg>