<svg xmlns="http://www.w3.org/2000/svg" viewBox="0 0 38.11 34"><defs><style>.cls-1{fill:#9b50c0;}</style></defs><g id="Capa_2" data-name="Capa 2"><g id="Capa_1-2" data-name="Capa 1"><path class="cls-1" d="M31.05,16h7.06L34.27,9.37l-4.33,2.5-1-1.74,4.33-2.5L29.44,1,25.92,7.11l-1.73-1L27.71,0H20.05V5h-2V0H10.39l3.53,6.11-1.73,1L8.66,1,4.83,7.63l4.33,2.5-1,1.74L3.83,9.37,0,16H7.05v2H0l3.83,6.63,4.33-2.5,1,1.74-4.33,2.5L9.24,34H28.87l4.4-7.63-4.33-2.5,1-1.74,4.33,2.5L38.11,18H31.05ZM16.58,31.29h-.94V27.93L14.19,30h-.7l-1.44-2.11v3.36h-.91v-5h.92L13.83,29h0l1.82-2.69h.91Zm5-2.39a1.41,1.41,0,0,1-.61.6,1.89,1.89,0,0,1-.92.21H18.68v1.58h-.93v-5H20a2.06,2.06,0,0,1,.93.19,1.46,1.46,0,0,1,.6.58,2.12,2.12,0,0,1,0,1.82ZM27,31.29H26V29.13H23.52v2.16h-.94v-5h.94v2H26v-2H27Zm-4.37-15L19.05,17l.71-3.54,7.78-5Zm-2,11a.84.84,0,0,1,.24.67.88.88,0,0,1-.24.68.94.94,0,0,1-.68.22H18.69V27.12h1.18A1,1,0,0,1,20.55,27.32Z"/></g></g></svg>