<svg xmlns="http://www.w3.org/2000/svg" viewBox="0 0 48 48"><defs><style>.cls-1{fill:#181818;}.cls-2{fill:#9b50c0;}</style></defs><g id="Capa_2" data-name="Capa 2"><g id="Capa_1-2" data-name="Capa 1"><rect class="cls-1" width="48" height="48"/><path class="cls-2" d="M18.94,8.85,24,6l5.06,2.85,1.17,9.22H17.77ZM17.45,20.58,17,24l.53,4.3h12.9L31,24l-.43-3.42ZM40,28.3V20.58H33.07L33.5,24,33,28.3ZM32.75,18.07H40V15l-8.23-4.63Zm-17.5,0,1-7.7L8,15v3.07ZM8,20.58V28.3h7L14.5,24l.43-3.42ZM32.67,30.8l-.83,6.79L40,33V30.8Zm-2.52,0H17.85l1,8.31L24,42l5.13-2.89Zm-14.82,0H8V33l8.16,4.59Z"/></g></g></svg>